<svg height="60" viewBox="0 0 60 60" width="60" xmlns="http://www.w3.org/2000/svg" xmlns:sketch="http://www.bohemiancoding.com/sketch/ns"><g id="flat" fill="none" fill-rule="evenodd"><g id="whatsapp"><path d="m30 60c16.5685433 0 30-13.4314567 30-30s-13.4314567-30-30-30-30 13.4314567-30 30 13.4314567 30 30 30z" fill="#57bb63"/><path d="m30.0712615 46.2210462c-2.8604307 0-5.5476923-.731077-7.8856615-2.0141539l-9.0317538 2.8700308 2.9442461-8.6850462c-1.4850461-2.4395077-2.3405538-5.3003077-2.3405538-8.3582769 0-8.9401846 7.3037538-16.1874462 16.3140923-16.1874462 9.0092307 0 16.3129846 7.2472616 16.3129846 16.1874462s-7.3033846 16.1874462-16.3133539 16.1874462zm0-29.7969231c-7.563323 0-13.7154461 6.1052307-13.7154461 13.6094769 0 2.9778462.9707077 5.7356308 2.6123077 7.9794462l-1.7132308 5.0540307 5.2704-1.6752c2.1659077 1.4219077 4.7601231 2.2512 7.5459692 2.2512 7.5622154 0 13.7154462-6.1048615 13.7154462-13.6091077 0-7.5042461-6.1532308-13.6098461-13.7154462-13.6098461zm8.2375385 17.3376c-.1004308-.1650462-.3670154-.2647385-.7661538-.4630154-.4002462-.1982769-2.3667693-1.1586462-2.732677-1.2904615-.3670154-.1321847-.6339692-.1990154-.9001846.1982769s-1.0327384 1.2904615-1.2664615 1.5552c-.2333539.2651077-.4663385.2983384-.8662154.0996923-.3995077-.1982769-1.6881231-.6173539-3.216-1.9691077-1.1885539-1.0515692-1.9912615-2.3497846-2.2242462-2.7474462-.2333538-.396923-.0247384-.6114461.1753847-.8089846.1798153-.1779692.3998769-.4633846.6-.6948923.200123-.2318769.2665846-.3969231.3995076-.6620308.1336616-.2647384.0668308-.4962461-.0332307-.6952615-.1000616-.1982769-.9001846-2.1507692-1.2332308-2.9453538-.3330461-.7938462-.6657231-.6616616-.8994461-.6616616-.2333539 0-.4999385-.0332307-.7665231-.0332307s-.7000616.099323-1.0667077.4962461c-.3662769.3972923-1.3990154 1.3572923-1.3990154 3.3094154 0 1.9524923 1.4322462 3.8388923 1.6327385 4.1032615.1997538.2643693 2.7655384 4.4012308 6.8304 5.9900308 4.0663384 1.5884308 4.0663384 1.0585846 4.7996307.9924923.7321846-.0660923 2.3649231-.9596308 2.699077-1.8860308.3326769-.9271384.3326769-1.721723.2333538-1.8871384z" fill="#fff"/></g></g></svg>